<?xml version="1.0" encoding="iso-8859-1"?>
<!-- Generator: Adobe Illustrator 18.0.0, SVG Export Plug-In . SVG Version: 6.00 Build 0)  -->
<!DOCTYPE svg PUBLIC "-//W3C//DTD SVG 1.1//EN" "http://www.w3.org/Graphics/SVG/1.1/DTD/svg11.dtd">
<svg version="1.1" id="Capa_1" xmlns="http://www.w3.org/2000/svg" xmlns:xlink="http://www.w3.org/1999/xlink" x="0px" y="0px"
	 viewBox="0 0 297 297" style="enable-background:new 0 0 297 297;" xml:space="preserve">
<g color="green">
	<path color="green" d="M294.051,58.321L238.678,2.949c-3.933-3.931-10.306-3.931-14.238,0L2.949,224.44c-3.932,3.932-3.932,10.307,0,14.238
		l55.373,55.373c1.966,1.965,4.542,2.949,7.119,2.949c2.577,0,5.153-0.983,7.119-2.949L294.051,72.56
		C297.983,68.628,297.983,62.253,294.051,58.321z M153.593,118.094L84.87,186.816l-11.866-3.955l14.898-14.898
		c1.472,0.782,3.096,1.175,4.722,1.175c2.577,0,5.153-0.983,7.119-2.949c3.206-3.206,3.796-8.036,1.773-11.841l48.121-48.121
		L153.593,118.094z M65.441,272.693l-41.134-41.134l32.779-32.779l27.321,9.107c1.043,0.347,2.117,0.516,3.183,0.516
		c2.628,0,5.201-1.03,7.12-2.949l77.522-77.522c2.696-2.697,3.638-6.686,2.432-10.303l-9.107-27.321l66.003-66.003l41.134,41.134
		L65.441,272.693z" style="fill: white; stroke: black; stroke-width: 2;"/>
	<path d="M206.988,51.945c-10.031,10.032-10.031,26.355,0,36.388c5.016,5.016,11.605,7.523,18.194,7.523s13.178-2.507,18.194-7.523
		c10.031-10.032,10.031-26.355,0-36.388C233.344,41.913,217.021,41.913,206.988,51.945z M229.138,74.095
		c-2.181,2.181-5.73,2.181-7.911,0c-2.182-2.181-2.182-5.73,0-7.911c1.09-1.09,2.523-1.636,3.955-1.636s2.865,0.546,3.955,1.636
		C231.319,68.365,231.319,71.914,229.138,74.095z" style="fill: white; stroke: black; stroke-width: 2;"/>
</g>
</svg>
